<svg width="20" height="35" viewBox="0 0 20 35" fill="none" xmlns="http://www.w3.org/2000/svg">
<path d="M2.49058 0.000252476C2.81974 -0.00165054 3.14603 0.0614377 3.45075 0.185902C3.75548 0.310367 4.03263 0.493761 4.26633 0.725563L19.2727 15.7319C19.7385 16.2005 20 16.8344 20 17.4952C20 18.1559 19.7385 18.7898 19.2727 19.2584L4.26633 34.2648C3.78787 34.6746 3.17242 34.8887 2.54296 34.8643C1.91351 34.84 1.31641 34.5791 0.87098 34.1337C0.425555 33.6882 0.164612 33.0911 0.140298 32.4617C0.115985 31.8322 0.330093 31.2168 0.739833 30.7383L13.9705 17.5077L0.739835 4.27707C0.388632 3.92874 0.148602 3.4841 0.0500975 2.99936C-0.0484073 2.51462 -0.000962789 2.01156 0.186431 1.55378C0.373825 1.096 0.692751 0.704076 1.10288 0.427551C1.51302 0.151027 1.99594 0.00232639 2.49058 0.000252476Z" fill="black"/>
</svg>
