<svg width="12" height="12" viewBox="0 0 12 12" fill="none" xmlns="http://www.w3.org/2000/svg">
<path d="M9.21231 10.434H7.90529C7.85793 10.434 7.82005 10.3969 7.82005 10.3505V10.0381C7.82005 9.99175 7.78216 9.95464 7.73481 9.95464H5.90371C5.85635 9.95464 5.81847 9.99175 5.81847 10.0381V10.3505C5.81847 10.3969 5.78058 10.434 5.73323 10.434H4.75138C4.70403 10.434 4.66614 10.4711 4.66614 10.5175V10.8794C4.66614 10.9258 4.70403 10.9629 4.75138 10.9629H9.21547C9.26283 10.9629 9.30071 10.9258 9.30071 10.8794V10.5175C9.29755 10.4711 9.25651 10.434 9.21231 10.434ZM11.4065 2H2.07735C1.75217 2 1.48698 2.25979 1.48698 2.57835V4.08144C1.48698 4.27938 1.47119 4.30722 1.60695 4.30722H1.84057C1.95422 4.30722 1.93212 4.27938 1.93212 4.07526V2.57835C1.93212 2.50103 1.99842 2.43918 2.07419 2.43918H11.4065C11.4854 2.43918 11.5485 2.50412 11.5485 2.57835V8.21031H4.89976C4.89976 8.21031 4.66614 8.21031 4.66614 8.50722V9.21237C4.66614 9.50928 4.90923 9.50928 4.90923 9.50928H11.4096C11.7348 9.50928 12 9.24948 12 8.93402V2.57835C11.9968 2.25979 11.7317 2 11.4065 2ZM6.74349 9.00825C6.59826 9.00825 6.4783 8.89072 6.4783 8.74845C6.4783 8.60619 6.59826 8.48866 6.74349 8.48866C6.88871 8.48866 7.00868 8.60619 7.00868 8.74845C7.00868 8.89072 6.88871 9.00825 6.74349 9.00825ZM3.75691 4.82371H0.378848C0.170481 4.82371 0 4.99072 0 5.19485V10.6289C0 10.833 0.170481 11 0.378848 11H3.75691C3.96527 11 4.13575 10.833 4.13575 10.6289V5.19485C4.13575 4.99072 3.96527 4.82371 3.75691 4.82371ZM1.65114 5.20412H2.48461C2.52565 5.20412 2.55722 5.23505 2.55722 5.27526C2.55722 5.31546 2.52565 5.34639 2.48461 5.34639H1.65114C1.6101 5.34639 1.57853 5.31546 1.57853 5.27526C1.57853 5.23505 1.61326 5.20412 1.65114 5.20412ZM2.06156 10.7433C1.95422 10.7433 1.86582 10.6567 1.86582 10.5515C1.86582 10.4464 1.95422 10.3598 2.06156 10.3598C2.1689 10.3598 2.2573 10.4464 2.2573 10.5515C2.26046 10.6567 2.17206 10.7433 2.06156 10.7433ZM3.81058 10.1773C3.81058 10.2268 3.76953 10.267 3.71902 10.267H0.416732C0.366219 10.267 0.325178 10.2268 0.325178 10.1773V5.66186C0.325178 5.61237 0.366219 5.57216 0.416732 5.57216H3.71902C3.76953 5.57216 3.81058 5.61237 3.81058 5.66186V10.1773Z" fill="black"/>
</svg>
