<svg width="12" height="13" viewBox="0 0 12 13" fill="none" xmlns="http://www.w3.org/2000/svg">
<path d="M9.21231 11.623H7.90529C7.85793 11.623 7.82005 11.585 7.82005 11.5376V11.2182C7.82005 11.1708 7.78216 11.1329 7.73481 11.1329H5.90371C5.85635 11.1329 5.81847 11.1708 5.81847 11.2182V11.5376C5.81847 11.585 5.78058 11.623 5.73323 11.623H4.75138C4.70403 11.623 4.66614 11.6609 4.66614 11.7084V12.0783C4.66614 12.1258 4.70403 12.1637 4.75138 12.1637H9.21547C9.26283 12.1637 9.30071 12.1258 9.30071 12.0783V11.7084C9.29755 11.6609 9.25651 11.623 9.21231 11.623ZM11.4065 3H2.07735C1.75217 3 1.48698 3.26561 1.48698 3.59131V5.12808C1.48698 5.33045 1.47119 5.35891 1.60695 5.35891H1.84057C1.95422 5.35891 1.93212 5.33045 1.93212 5.12175V3.59131C1.93212 3.51226 1.99842 3.44902 2.07419 3.44902H11.4065C11.4854 3.44902 11.5485 3.51542 11.5485 3.59131V9.34945H4.89976C4.89976 9.34945 4.66614 9.34945 4.66614 9.65301V10.374C4.66614 10.6775 4.90923 10.6775 4.90923 10.6775H11.4096C11.7348 10.6775 12 10.4119 12 10.0894V3.59131C11.9968 3.26561 11.7317 3 11.4065 3ZM6.74349 10.1653C6.59826 10.1653 6.4783 10.0451 6.4783 9.89965C6.4783 9.7542 6.59826 9.63404 6.74349 9.63404C6.88871 9.63404 7.00868 9.7542 7.00868 9.89965C7.00868 10.0451 6.88871 10.1653 6.74349 10.1653ZM3.75691 5.88698H0.378848C0.170481 5.88698 0 6.05773 0 6.26643V11.8222C0 12.0309 0.170481 12.2016 0.378848 12.2016H3.75691C3.96527 12.2016 4.13575 12.0309 4.13575 11.8222V6.26643C4.13575 6.05773 3.96527 5.88698 3.75691 5.88698ZM1.65114 6.27591H2.48461C2.52565 6.27591 2.55722 6.30753 2.55722 6.34864C2.55722 6.38975 2.52565 6.42137 2.48461 6.42137H1.65114C1.6101 6.42137 1.57853 6.38975 1.57853 6.34864C1.57853 6.30753 1.61326 6.27591 1.65114 6.27591ZM2.06156 11.9392C1.95422 11.9392 1.86582 11.8507 1.86582 11.7431C1.86582 11.6356 1.95422 11.5471 2.06156 11.5471C2.1689 11.5471 2.2573 11.6356 2.2573 11.7431C2.26046 11.8507 2.17206 11.9392 2.06156 11.9392ZM3.81058 11.3605C3.81058 11.4111 3.76953 11.4522 3.71902 11.4522H0.416732C0.366219 11.4522 0.325178 11.4111 0.325178 11.3605V6.7439C0.325178 6.69331 0.366219 6.6522 0.416732 6.6522H3.71902C3.76953 6.6522 3.81058 6.69331 3.81058 6.7439V11.3605Z" fill="black"/>
</svg>
