<svg width="512" height="393" viewBox="0 0 512 393" fill="none" xmlns="http://www.w3.org/2000/svg">
<path d="M393.059 367.914H337.292C335.272 367.914 333.655 366.295 333.655 364.271V350.645C333.655 348.621 332.039 347.002 330.018 347.002H251.892C249.871 347.002 248.255 348.621 248.255 350.645V364.271C248.255 366.295 246.638 367.914 244.618 367.914H202.726C200.705 367.914 199.089 369.533 199.089 371.557V387.342C199.089 389.366 200.705 390.985 202.726 390.985H393.193C395.214 390.985 396.83 389.366 396.83 387.342V371.557C396.696 369.533 394.945 367.914 393.059 367.914ZM486.676 0H88.6335C74.7593 0 63.4444 11.3329 63.4444 25.2292V90.798C63.4444 99.4326 62.7709 100.647 68.563 100.647H78.5309C83.3802 100.647 82.4373 99.4326 82.4373 90.5282V25.2292C82.4373 21.8563 85.266 19.158 88.4988 19.158H486.676C490.044 19.158 492.738 21.9912 492.738 25.2292V270.91H209.057C209.057 270.91 199.089 270.91 199.089 283.862V314.623C199.089 327.574 209.461 327.574 209.461 327.574H486.811C500.685 327.574 512 316.241 512 302.48V25.2292C511.865 11.3329 500.55 0 486.676 0ZM287.722 305.718C281.526 305.718 276.407 300.591 276.407 294.385C276.407 288.179 281.526 283.052 287.722 283.052C293.918 283.052 299.037 288.179 299.037 294.385C299.037 300.591 293.918 305.718 287.722 305.718ZM160.295 123.178H16.1642C7.27388 123.178 0 130.463 0 139.368V376.414C0 385.318 7.27388 392.604 16.1642 392.604H160.295C169.185 392.604 176.459 385.318 176.459 376.414V139.368C176.459 130.463 169.185 123.178 160.295 123.178ZM70.4488 139.772H106.01C107.761 139.772 109.108 141.121 109.108 142.875C109.108 144.629 107.761 145.978 106.01 145.978H70.4488C68.6977 145.978 67.3507 144.629 67.3507 142.875C67.3507 141.121 68.8324 139.772 70.4488 139.772ZM87.96 381.406C83.3802 381.406 79.6085 377.628 79.6085 373.041C79.6085 368.454 83.3802 364.676 87.96 364.676C92.5399 364.676 96.3115 368.454 96.3115 373.041C96.4462 377.628 92.6746 381.406 87.96 381.406ZM162.585 356.716C162.585 358.875 160.833 360.629 158.678 360.629H17.7806C15.6254 360.629 13.8742 358.875 13.8742 356.716V159.74C13.8742 157.581 15.6254 155.827 17.7806 155.827H158.678C160.833 155.827 162.585 157.581 162.585 159.74V356.716Z" fill="black"/>
</svg>
