<svg id="&#x421;&#x43B;&#x43E;&#x439;_1" enable-background="new 0 0 12 12" viewBox="0 0 12 12" xmlns="http://www.w3.org/2000/svg"><g fill="rgb(0,0,0)"><path d="m10.5.125h-9c-.7578125 0-1.375.6166992-1.375 1.375v9c0 .7583008.6171875 1.375 1.375 1.375h9c.7578125 0 1.375-.6166992 1.375-1.375v-9c0-.7583008-.6171875-1.375-1.375-1.375zm.625 10.375c0 .3447266-.2802734.625-.625.625h-9c-.3447266 0-.625-.2802734-.625-.625v-9c0-.3447266.2802734-.625.625-.625h9c.3447266 0 .625.2802734.625.625z"/><path d="m2.5 4.125h2.5c.2070313 0 .375-.1679688.375-.375s-.1679687-.375-.375-.375h-2.5c-.2070313 0-.375.1679688-.375.375s.1679688.375.375.375z"/><path d="m5.3056641 6.6948242c-.1464844-.1464844-.3847656-.1464844-.53125 0l-1.0244141 1.0244141-1.0244141-1.0244141c-.1464844-.1464844-.3847656-.1464844-.53125 0-.1455078.1464844-.1455078.3837891 0 .5302734l1.0249024 1.0249024-1.0249024 1.0249023c-.1455078.1464844-.1455078.3837891 0 .5302734.0732422.0732422.1699219.1098633.265625.1098633s.1923828-.0366211.265625-.1098633l1.0244141-1.024414 1.0244141 1.0244141c.0732422.0732422.1699219.1098633.265625.1098633s.1923828-.0366211.265625-.1098633c.1455078-.1464844.1455078-.3837891 0-.5302734l-1.0249024-1.0249024 1.0249023-1.0249023c.1455079-.1464844.1455079-.3837891.0000001-.5302735z"/><path d="m9.5 6.875h-2.5c-.2070313 0-.375.1679688-.375.375s.1679688.375.375.375h2.5c.2070313 0 .375-.1679688.375-.375s-.1679687-.375-.375-.375z"/><path d="m9.5 8.875h-2.5c-.2070313 0-.375.1679688-.375.375s.1679688.375.375.375h2.5c.2070313 0 .375-.1679688.375-.375s-.1679687-.375-.375-.375z"/><path d="m9.5 3.375h-.875v-.875c0-.2070313-.1679688-.375-.375-.375s-.375.1679688-.375.375v.875h-.875c-.2070313 0-.375.1679688-.375.375s.1679688.375.375.375h.875v.875c0 .2070313.1679688.375.375.375s.375-.1679687.375-.375v-.875h.875c.2070313 0 .375-.1679688.375-.375s-.1679687-.375-.375-.375z"/></g></svg>