<svg width="12" height="12" viewBox="0 0 12 12" fill="none" xmlns="http://www.w3.org/2000/svg">
<path d="M10.375 0H1.375C0.617188 0 0 0.616699 0 1.375V10.375C0 11.1333 0.617188 11.75 1.375 11.75H10.375C11.1328 11.75 11.75 11.1333 11.75 10.375V1.375C11.75 0.616699 11.1328 0 10.375 0ZM11 10.375C11 10.7197 10.7197 11 10.375 11H1.375C1.03027 11 0.75 10.7197 0.75 10.375V1.375C0.75 1.03027 1.03027 0.75 1.375 0.75H10.375C10.7197 0.75 11 1.03027 11 1.375V10.375Z" fill="black"/>
<path d="M2.375 4H4.875C5.08203 4 5.25 3.83203 5.25 3.625C5.25 3.41797 5.08203 3.25 4.875 3.25H2.375C2.16797 3.25 2 3.41797 2 3.625C2 3.83203 2.16797 4 2.375 4Z" fill="black"/>
<path d="M5.1814 6.56982C5.03491 6.42334 4.79663 6.42334 4.65015 6.56982L3.62573 7.59424L2.60132 6.56982C2.45483 6.42334 2.21655 6.42334 2.07007 6.56982C1.92456 6.71631 1.92456 6.95361 2.07007 7.1001L3.09497 8.125L2.07007 9.1499C1.92456 9.29639 1.92456 9.53369 2.07007 9.68018C2.14331 9.75342 2.23999 9.79004 2.33569 9.79004C2.4314 9.79004 2.52808 9.75342 2.60132 9.68018L3.62573 8.65576L4.65015 9.68018C4.72339 9.75342 4.82007 9.79004 4.91577 9.79004C5.01147 9.79004 5.10815 9.75342 5.1814 9.68018C5.3269 9.53369 5.3269 9.29639 5.1814 9.1499L4.15649 8.125L5.1814 7.1001C5.3269 6.95361 5.3269 6.71631 5.1814 6.56982Z" fill="black"/>
<path d="M9.375 6.75H6.875C6.66797 6.75 6.5 6.91797 6.5 7.125C6.5 7.33203 6.66797 7.5 6.875 7.5H9.375C9.58203 7.5 9.75 7.33203 9.75 7.125C9.75 6.91797 9.58203 6.75 9.375 6.75Z" fill="black"/>
<path d="M9.375 8.75H6.875C6.66797 8.75 6.5 8.91797 6.5 9.125C6.5 9.33203 6.66797 9.5 6.875 9.5H9.375C9.58203 9.5 9.75 9.33203 9.75 9.125C9.75 8.91797 9.58203 8.75 9.375 8.75Z" fill="black"/>
<path d="M9.375 3.25H8.5V2.375C8.5 2.16797 8.33203 2 8.125 2C7.91797 2 7.75 2.16797 7.75 2.375V3.25H6.875C6.66797 3.25 6.5 3.41797 6.5 3.625C6.5 3.83203 6.66797 4 6.875 4H7.75V4.875C7.75 5.08203 7.91797 5.25 8.125 5.25C8.33203 5.25 8.5 5.08203 8.5 4.875V4H9.375C9.58203 4 9.75 3.83203 9.75 3.625C9.75 3.41797 9.58203 3.25 9.375 3.25Z" fill="black"/>
</svg>
