<svg width="12" height="10" viewBox="0 0 12 10" fill="none" xmlns="http://www.w3.org/2000/svg">
<path d="M9.21231 8.62299H7.90529C7.85793 8.62299 7.82005 8.58504 7.82005 8.53761V8.21824C7.82005 8.17081 7.78216 8.13286 7.73481 8.13286H5.90371C5.85635 8.13286 5.81847 8.17081 5.81847 8.21824V8.53761C5.81847 8.58504 5.78058 8.62299 5.73323 8.62299H4.75138C4.70403 8.62299 4.66614 8.66093 4.66614 8.70836V9.07833C4.66614 9.12576 4.70403 9.1637 4.75138 9.1637H9.21547C9.26283 9.1637 9.30071 9.12576 9.30071 9.07833V8.70836C9.29755 8.66093 9.25651 8.62299 9.21231 8.62299ZM11.4065 0H2.07735C1.75217 0 1.48698 0.265615 1.48698 0.591309V2.12808C1.48698 2.33045 1.47119 2.35891 1.60695 2.35891H1.84057C1.95422 2.35891 1.93212 2.33045 1.93212 2.12175V0.591309C1.93212 0.512257 1.99842 0.449015 2.07419 0.449015H11.4065C11.4854 0.449015 11.5485 0.515419 11.5485 0.591309V6.34945H4.89976C4.89976 6.34945 4.66614 6.34945 4.66614 6.65301V7.37397C4.66614 7.67753 4.90923 7.67753 4.90923 7.67753H11.4096C11.7348 7.67753 12 7.41191 12 7.08938V0.591309C11.9968 0.265615 11.7317 0 11.4065 0ZM6.74349 7.16527C6.59826 7.16527 6.4783 7.04511 6.4783 6.89965C6.4783 6.7542 6.59826 6.63404 6.74349 6.63404C6.88871 6.63404 7.00868 6.7542 7.00868 6.89965C7.00868 7.04511 6.88871 7.16527 6.74349 7.16527ZM3.75691 2.88698H0.378848C0.170481 2.88698 0 3.05773 0 3.26643V8.8222C0 9.03089 0.170481 9.20165 0.378848 9.20165H3.75691C3.96527 9.20165 4.13575 9.03089 4.13575 8.8222V3.26643C4.13575 3.05773 3.96527 2.88698 3.75691 2.88698ZM1.65114 3.27591H2.48461C2.52565 3.27591 2.55722 3.30753 2.55722 3.34864C2.55722 3.38975 2.52565 3.42137 2.48461 3.42137H1.65114C1.6101 3.42137 1.57853 3.38975 1.57853 3.34864C1.57853 3.30753 1.61326 3.27591 1.65114 3.27591ZM2.06156 8.93919C1.95422 8.93919 1.86582 8.85066 1.86582 8.74315C1.86582 8.63563 1.95422 8.5471 2.06156 8.5471C2.1689 8.5471 2.2573 8.63563 2.2573 8.74315C2.26046 8.85066 2.17206 8.93919 2.06156 8.93919ZM3.81058 8.36053C3.81058 8.41113 3.76953 8.45223 3.71902 8.45223H0.416732C0.366219 8.45223 0.325178 8.41113 0.325178 8.36053V3.7439C0.325178 3.69331 0.366219 3.6522 0.416732 3.6522H3.71902C3.76953 3.6522 3.81058 3.69331 3.81058 3.7439V8.36053Z" fill="black"/>
</svg>
