<svg width="512" height="512" viewBox="0 0 512 512" fill="none" xmlns="http://www.w3.org/2000/svg">
<path d="M393.059 486.914H337.292C335.272 486.914 333.655 485.295 333.655 483.271V469.645C333.655 467.621 332.039 466.002 330.018 466.002H251.892C249.871 466.002 248.255 467.621 248.255 469.645V483.271C248.255 485.295 246.638 486.914 244.618 486.914H202.726C200.705 486.914 199.089 488.533 199.089 490.557V506.342C199.089 508.366 200.705 509.985 202.726 509.985H393.193C395.214 509.985 396.83 508.366 396.83 506.342V490.557C396.696 488.533 394.945 486.914 393.059 486.914ZM486.676 119H88.6335C74.7593 119 63.4444 130.333 63.4444 144.229V209.798C63.4444 218.433 62.7709 219.647 68.563 219.647H78.5309C83.3802 219.647 82.4373 218.433 82.4373 209.528V144.229C82.4373 140.856 85.266 138.158 88.4988 138.158H486.676C490.044 138.158 492.738 140.991 492.738 144.229V389.91H209.057C209.057 389.91 199.089 389.91 199.089 402.862V433.623C199.089 446.574 209.461 446.574 209.461 446.574H486.811C500.685 446.574 512 435.241 512 421.48V144.229C511.865 130.333 500.55 119 486.676 119ZM287.722 424.718C281.526 424.718 276.407 419.591 276.407 413.385C276.407 407.179 281.526 402.052 287.722 402.052C293.918 402.052 299.037 407.179 299.037 413.385C299.037 419.591 293.918 424.718 287.722 424.718ZM160.295 242.178H16.1642C7.27388 242.178 0 249.463 0 258.368V495.414C0 504.318 7.27388 511.604 16.1642 511.604H160.295C169.185 511.604 176.459 504.318 176.459 495.414V258.368C176.459 249.463 169.185 242.178 160.295 242.178ZM70.4488 258.772H106.01C107.761 258.772 109.108 260.121 109.108 261.875C109.108 263.629 107.761 264.978 106.01 264.978H70.4488C68.6977 264.978 67.3507 263.629 67.3507 261.875C67.3507 260.121 68.8324 258.772 70.4488 258.772ZM87.96 500.406C83.3802 500.406 79.6085 496.628 79.6085 492.041C79.6085 487.454 83.3802 483.676 87.96 483.676C92.5399 483.676 96.3115 487.454 96.3115 492.041C96.4462 496.628 92.6746 500.406 87.96 500.406ZM162.585 475.716C162.585 477.875 160.833 479.629 158.678 479.629H17.7806C15.6254 479.629 13.8742 477.875 13.8742 475.716V278.74C13.8742 276.581 15.6254 274.827 17.7806 274.827H158.678C160.833 274.827 162.585 276.581 162.585 278.74V475.716Z" fill="black"/>
</svg>
