<svg width="128" height="128" viewBox="0 0 128 128" fill="none" xmlns="http://www.w3.org/2000/svg">
<path fill-rule="evenodd" clip-rule="evenodd" d="M12 0C5.37258 0 0 5.37258 0 12V116C0 122.627 5.37258 128 12 128H116C122.627 128 128 122.627 128 116V12C128 5.37258 122.627 0 116 0H12ZM76.1778 75.3444C79.7222 76.6333 83.9111 77.2778 87.7778 77.2778C89.3889 77.2778 91 78.8889 91 80.5V91.7778C91 93.3889 89.3889 95 87.7778 95C57.4889 95 33 70.5111 33 40.2222C33 38.6111 34.6111 37 36.2222 37H47.5C49.1111 37 50.7222 38.6111 50.7222 40.2222C50.7222 44.0889 51.3667 48.2778 52.3333 51.8222C52.9778 52.7889 52.6556 54.0778 51.6889 55.0444L44.6 62.1333C49.1111 71.1556 56.8444 78.5667 65.8667 83.4L72.9556 76.3111C73.6 75.6667 74.2444 75.3444 75.2111 75.3444H76.1778ZM44.2778 43.4444H39.4444C39.7667 47.6333 40.7333 51.8222 42.0222 55.6889L45.8889 51.8222C45.2444 49.2444 44.6 46.3444 44.2778 43.4444ZM72.3111 85.9778C76.1778 87.2667 80.3667 88.2333 84.5556 88.5556V83.4C81.6556 83.4 78.7556 82.7556 76.1778 82.1111L72.3111 85.9778ZM78.1111 66H71.6667C71.6667 63.4362 70.6482 60.9775 68.8354 59.1646C67.0225 57.3518 64.5638 56.3333 62 56.3333V49.8889C66.2729 49.8889 70.3709 51.5863 73.3923 54.6077C76.4137 57.6291 78.1111 61.7271 78.1111 66ZM91 66H84.5556C84.5556 53.53 74.4378 43.4444 62 43.4444V37C78.0144 37 91 49.8889 91 66Z" fill="black"/>
</svg>
