<svg width="58" height="58" viewBox="0 0 58 58" fill="none" xmlns="http://www.w3.org/2000/svg">
<path fill-rule="evenodd" clip-rule="evenodd" d="M58 29C58 45.0163 45.0163 58 29 58C12.9837 58 0 45.0163 0 29C0 12.9837 12.9837 0 29 0C45.0163 0 58 12.9837 58 29ZM30.0391 21.4098C27.2184 22.5831 21.581 25.0113 13.1269 28.6946C11.7541 29.2406 11.035 29.7746 10.9695 30.2968C10.8589 31.1794 11.9641 31.5269 13.4691 32.0001C13.6738 32.0645 13.8859 32.1312 14.1034 32.2019C15.5841 32.6832 17.5758 33.2463 18.6113 33.2687C19.5506 33.289 20.5989 32.9018 21.7562 32.107C29.6552 26.775 33.7326 24.08 33.9886 24.0219C34.1692 23.9809 34.4195 23.9293 34.589 24.0801C34.7586 24.2308 34.7419 24.5162 34.724 24.5928C34.6145 25.0595 30.2762 29.0928 28.0311 31.1801C27.3312 31.8308 26.8347 32.2923 26.7332 32.3977C26.5059 32.6339 26.2742 32.8572 26.0515 33.0719C24.6759 34.398 23.6443 35.3924 26.1086 37.0163C27.2928 37.7967 28.2404 38.4421 29.1858 39.0858C30.2182 39.789 31.248 40.4902 32.5804 41.3636C32.9199 41.5862 33.2441 41.8173 33.5598 42.0424C34.7614 42.899 35.8408 43.6685 37.1744 43.5458C37.9494 43.4745 38.7498 42.7458 39.1563 40.5726C40.117 35.4367 42.0055 24.3087 42.4419 19.7231C42.4801 19.3214 42.432 18.8072 42.3934 18.5815C42.3548 18.3558 42.274 18.0342 41.9807 17.7961C41.6332 17.5142 41.0968 17.4547 40.8569 17.459C39.7662 17.4782 38.0927 18.0601 30.0391 21.4098Z" fill="black"/>
</svg>
