<svg width="58" height="58" viewBox="0 0 58 58" fill="none" xmlns="http://www.w3.org/2000/svg">
<path fill-rule="evenodd" clip-rule="evenodd" d="M4.07707 4.07707C0 8.15415 0 14.7161 0 27.84V30.16C0 43.2839 0 49.8459 4.07707 53.9229C8.15414 58 14.7161 58 27.84 58H27.84H30.16H30.16C43.2839 58 49.8459 58 53.9229 53.9229C58 49.8459 58 43.2839 58 30.16V30.16V27.84V27.84C58 14.7161 58 8.15414 53.9229 4.07707C49.8459 0 43.2839 0 30.16 0H27.84C14.7161 0 8.15415 0 4.07707 4.07707ZM31.0772 20.9511C28.2565 22.1243 22.6191 24.5526 14.165 28.2359C12.7922 28.7818 12.0731 29.3159 12.0076 29.8381C11.897 30.7206 13.0022 31.0682 14.5072 31.5414C14.7119 31.6058 14.924 31.6725 15.1415 31.7432C16.6222 32.2245 18.614 32.7876 19.6494 32.8099C20.5887 32.8302 21.637 32.443 22.7944 31.6483C30.6933 26.3163 34.7707 23.6212 35.0267 23.5631C35.2073 23.5221 35.4576 23.4706 35.6272 23.6213C35.7967 23.772 35.7801 24.0574 35.7621 24.134C35.6526 24.6008 31.3142 28.6341 29.0692 30.7213C28.3693 31.372 27.8728 31.8336 27.7713 31.939C27.544 32.1751 27.3123 32.3985 27.0896 32.6131C25.714 33.9392 24.6824 34.9337 27.1467 36.5576C28.3309 37.338 29.2785 37.9833 30.2239 38.6271C31.2564 39.3302 32.2861 40.0315 33.6185 40.9049C33.958 41.1274 34.2822 41.3585 34.5979 41.5836C35.7995 42.4402 36.8789 43.2098 38.2126 43.0871C38.9875 43.0158 39.7879 42.2871 40.1944 40.1139C41.1552 34.9779 43.0436 23.8499 43.48 19.2644C43.5182 18.8626 43.4701 18.3484 43.4315 18.1227C43.3929 17.897 43.3122 17.5754 43.0188 17.3374C42.6713 17.0554 42.1349 16.996 41.895 17.0002C40.8043 17.0194 39.1308 17.6013 31.0772 20.9511Z" fill="black"/>
</svg>
