<svg width="128" height="128" viewBox="0 0 128 128" fill="none" xmlns="http://www.w3.org/2000/svg">
<path fill-rule="evenodd" clip-rule="evenodd" d="M12 0C5.37258 0 0 5.37258 0 12V116C0 122.627 5.37258 128 12 128H116C122.627 128 128 122.627 128 116V12C128 5.37258 122.627 0 116 0H12ZM35.7082 60.0633L87.0851 40.3188C89.4294 39.2618 91.6954 40.8819 90.8 44.46L82.0517 85.5491C81.4403 88.4716 79.6756 89.1647 77.2183 87.8161L63.8916 78.0059L57.4847 84.2149C57.4608 84.2379 57.437 84.2608 57.4134 84.2836C56.6987 84.9723 56.1062 85.5433 54.8159 85.5433L55.7258 71.9933L55.72 71.9904H55.7258L80.4522 49.7506C81.5359 48.7919 80.2175 48.3211 78.7744 49.1962L48.2554 68.3863L35.0649 64.2855C32.2223 63.4162 32.202 61.4669 35.7082 60.0633Z" fill="black"/>
</svg>
