<svg width="58" height="58" viewBox="0 0 58 58" fill="none" xmlns="http://www.w3.org/2000/svg">
<path fill-rule="evenodd" clip-rule="evenodd" d="M4.07707 4.07707C0 8.15415 0 14.7161 0 27.84V30.16C0 43.2839 0 49.8459 4.07707 53.9229C8.15414 58 14.7161 58 27.84 58H27.84H30.16H30.16C43.2839 58 49.8459 58 53.9229 53.9229C58 49.8459 58 43.2839 58 30.16V30.16V27.84V27.84C58 14.7161 58 8.15414 53.9229 4.07707C49.8459 0 43.2839 0 30.16 0H27.84C14.7161 0 8.15415 0 4.07707 4.07707ZM9.79386 17.6441C10.108 32.724 17.648 41.7865 30.8671 41.7865H31.6164V33.159C36.4739 33.6423 40.147 37.1949 41.6212 41.7865H48.4847C46.5997 34.9232 41.6453 31.129 38.552 29.679C41.6453 27.8907 45.9953 23.5407 47.0345 17.6441H40.7993C39.446 22.4291 35.4348 26.779 31.6164 27.1898V17.6441H25.3812V34.3673C21.5146 33.4007 16.633 28.7124 16.4155 17.6441H9.79386Z" fill="black"/>
</svg>
