<svg width="58" height="58" viewBox="0 0 58 58" fill="none" xmlns="http://www.w3.org/2000/svg">
<rect x="8" y="11" width="42" height="36" fill="white"/>
<path fill-rule="evenodd" clip-rule="evenodd" d="M4.07707 4.07707C0 8.15415 0 14.7161 0 27.84V30.16C0 43.2839 0 49.8459 4.07707 53.9229C8.15414 58 14.7161 58 27.84 58H27.84H30.16H30.16C43.2839 58 49.8459 58 53.9229 53.9229C58 49.8459 58 43.2839 58 30.16V30.16V27.84V27.84C58 14.7161 58 8.15414 53.9229 4.07707C49.8459 0 43.2839 0 30.16 0H27.84C14.7161 0 8.15415 0 4.07707 4.07707ZM12 19C12.2761 32.2517 18.9019 40.2155 30.5184 40.2155H31.1768V32.6339C35.4454 33.0587 38.6731 36.1805 39.9686 40.2155H46C44.3435 34.1842 39.9898 30.85 37.2715 29.5758C39.9898 28.0043 43.8124 24.1818 44.7256 19H39.2464C38.0571 23.2049 34.5322 27.0274 31.1768 27.3885V19H25.6976V33.6958C22.2997 32.8463 18.01 28.7264 17.8188 19H12Z" fill="#0077FF"/>
</svg>
