<svg width="98" height="98" viewBox="0 0 98 98" fill="none" xmlns="http://www.w3.org/2000/svg">
<rect width="98" height="98" fill="url(#paint0_linear_663_419)"/>
<path fill-rule="evenodd" clip-rule="evenodd" d="M70.2539 35C71.877 35 72.216 35.8208 71.877 36.9355C71.1971 40.0041 64.6617 49.0406 64.6617 49.0406C64.0942 49.9328 63.8676 50.3799 64.6617 51.3825C64.9426 51.7678 65.5404 52.3426 66.2239 53.0001C66.9274 53.6767 67.7215 54.4408 68.3551 55.1758C70.6563 57.7219 72.3915 59.8675 72.8775 61.3458C73.3185 62.832 72.5507 63.5835 71.0195 63.5835H65.6601C64.2232 63.5835 63.5004 62.7934 61.9376 61.0855C61.2758 60.3621 60.4634 59.4743 59.382 58.4119C56.2013 55.4005 54.8394 55.0085 54.0431 55.0085C52.963 55.0085 52.6405 55.3087 52.6405 56.8133V61.5356C52.6405 62.832 52.22 63.5835 48.8124 63.5835C43.1305 63.5835 36.8931 60.1964 32.4626 53.9489C25.8171 44.8 24 37.883 24 36.4905C24 35.7087 24.3063 35 25.8375 35H31.2009C32.571 35 33.0855 35.588 33.5939 37.0479C36.2172 44.5489 40.6376 51.1048 42.4546 51.1048C43.1366 51.1048 43.449 50.7964 43.449 49.0958V41.3415C43.3265 39.1347 42.5413 38.1801 41.9597 37.473C41.6008 37.0369 41.3194 36.6948 41.3194 36.2109C41.3194 35.6208 41.832 35 42.6834 35H51.1114C52.2464 35 52.6221 35.5963 52.6221 36.9355V47.3664C52.6221 48.4833 53.1345 48.8731 53.4756 48.8731C54.1574 48.8731 54.7251 48.4833 55.9746 47.2543C59.8352 43.0158 62.5609 36.4905 62.5609 36.4905C62.902 35.7087 63.5307 35 64.8945 35H70.2539Z" fill="white"/>
<defs>
<linearGradient id="paint0_linear_663_419" x1="49" y1="0" x2="49" y2="98" gradientUnits="userSpaceOnUse">
<stop stop-color="#0277FF"/>
<stop offset="1" stop-color="#0063E1"/>
</linearGradient>
</defs>
</svg>
