<svg width="58" height="58" viewBox="0 0 58 58" fill="none" xmlns="http://www.w3.org/2000/svg">
<path d="M42.2876 34.7576C41.5662 34.3979 38.0187 32.6615 37.3567 32.4218C36.6948 32.1819 36.2144 32.0621 35.7338 32.7814C35.2534 33.5008 33.8701 35.1187 33.4491 35.5968C33.0281 36.0764 32.6071 36.1357 31.8857 35.7759C31.1644 35.4162 28.8394 34.6583 26.0824 32.2122C23.9376 30.3077 22.489 27.9568 22.0682 27.2374C21.6472 26.5181 22.0239 26.1295 22.3838 25.7726C22.7078 25.4501 23.1053 24.9333 23.4666 24.5144C23.8282 24.0954 23.9472 23.7951 24.1881 23.3168C24.4291 22.8373 24.3086 22.4184 24.1286 22.0587C23.9485 21.699 22.5058 18.1642 21.9034 16.7269C21.3176 15.3268 20.7223 15.517 20.2805 15.4936C19.8595 15.4729 19.3791 15.4688 18.8972 15.4688C18.4153 15.4688 17.6343 15.6479 16.9724 16.3673C16.3106 17.0866 14.4467 18.8243 14.4467 22.3577C14.4467 25.891 17.032 29.3074 17.3934 29.7869C17.7548 30.2665 22.4821 37.5192 29.72 40.6309C31.4413 41.3709 32.7858 41.8132 33.834 42.144C35.5622 42.6911 37.1351 42.614 38.3786 42.4293C39.7648 42.2226 42.6477 40.6915 43.2487 39.0144C43.8496 37.3373 43.8496 35.8985 43.6696 35.5995C43.4897 35.3005 43.0078 35.1199 42.2864 34.7603L42.2876 34.7576Z" fill="black"/>
<path fill-rule="evenodd" clip-rule="evenodd" d="M49.5491 8.42824C44.0976 2.99591 36.8471 0.00275613 29.1218 0C13.2032 0 0.247863 12.8918 0.242324 28.7382C0.239555 33.8039 1.57026 38.7484 4.09736 43.1059L0 58L15.3094 54.0036C19.5271 56.294 24.2767 57.4997 29.1094 57.5012H29.1218C45.0376 57.5012 57.9945 44.6079 58 28.7616C58.0027 21.0817 55.002 13.862 49.5491 8.42962V8.42824ZM29.1218 52.6476H29.1121C24.8056 52.6463 20.581 51.4941 16.8949 49.3182L16.0183 48.8001L6.93326 51.1717L9.35788 42.3561L8.78737 41.4522C6.3849 37.6488 5.11512 33.2526 5.11789 28.7396C5.12343 15.5694 15.8909 4.85354 29.1316 4.85354C35.5427 4.8563 41.5691 7.34372 46.1011 11.8596C50.6334 16.3742 53.1272 22.3771 53.1245 28.7589C53.1188 41.9305 42.3514 52.6476 29.1218 52.6476Z" fill="black"/>
</svg>
