<svg width="58" height="58" viewBox="0 0 58 58" fill="none" xmlns="http://www.w3.org/2000/svg">
<path fill-rule="evenodd" clip-rule="evenodd" d="M4.07707 4.07707C0 8.15415 0 14.7161 0 27.84V30.16C0 43.2839 0 49.8459 4.07707 53.9229C8.15414 58 14.7161 58 27.84 58H27.84H30.16H30.16C43.2839 58 49.8459 58 53.9229 53.9229C58 49.8459 58 43.2839 58 30.16V30.16V27.84V27.84C58 14.7161 58 8.15414 53.9229 4.07707C49.8459 0 43.2839 0 30.16 0H27.84C14.7161 0 8.15415 0 4.07707 4.07707ZM30.0672 13C34.3294 13.0015 38.3297 14.6529 41.3374 17.6501V17.6508C44.346 20.648 46.0015 24.6313 46 28.8685C45.997 37.6113 38.8484 44.7248 30.0672 44.7248H30.0604C27.394 44.724 24.7736 44.0588 22.4465 42.7951L14 45L16.2606 36.7826C14.8664 34.3784 14.1322 31.6504 14.1337 28.8555C14.1368 20.1127 21.2845 13 30.0672 13ZM30.0619 42.047H30.0672C37.3663 42.047 43.3069 36.134 43.31 28.867C43.3116 25.346 41.9356 22.034 39.4351 19.5432C36.9347 17.0517 33.6098 15.6793 30.0726 15.6778C22.7674 15.6778 16.8267 21.59 16.8237 28.8563C16.8221 31.3463 17.5227 33.7717 18.8482 35.8702L19.163 36.3689L17.8252 41.2327L22.8377 39.9242L23.3213 40.21C25.355 41.4106 27.6859 42.0462 30.0619 42.047ZM34.6106 30.8879C34.9758 31.0201 36.9331 31.9782 37.3311 32.1766L37.3304 32.1781C37.4079 32.2167 37.4804 32.2516 37.5477 32.284C37.8257 32.4178 38.0136 32.5083 38.0936 32.6411C38.1929 32.8061 38.1929 33.5999 37.8613 34.5252C37.5298 35.4505 35.9392 36.2952 35.1744 36.4092C34.4884 36.5112 33.6205 36.5537 32.667 36.2519C32.0887 36.0694 31.3469 35.8253 30.3972 35.4171C26.6672 33.8135 24.1457 30.2165 23.6669 29.5335C23.6331 29.4853 23.6095 29.4516 23.5964 29.4342L23.5939 29.4309C23.3855 29.1545 21.9706 27.2769 21.9706 25.3353C21.9706 23.5105 22.8716 22.5538 23.2863 22.1134C23.3147 22.0833 23.3407 22.0556 23.3641 22.0302C23.7292 21.6333 24.1602 21.5345 24.426 21.5345C24.6919 21.5345 24.957 21.5368 25.1892 21.5482C25.218 21.5497 25.248 21.5496 25.279 21.5495H25.279C25.5105 21.5486 25.7996 21.5474 26.0846 22.2287C26.2 22.5038 26.3711 22.9183 26.5496 23.3507C26.8855 24.1642 27.2475 25.0407 27.3124 25.1703C27.4116 25.3688 27.4781 25.5999 27.3452 25.8645C27.3244 25.9058 27.3052 25.9447 27.2869 25.9818C27.1884 26.1818 27.1153 26.3302 26.9471 26.5252C26.8795 26.6036 26.8095 26.6882 26.7397 26.7728C26.6036 26.9374 26.4678 27.1018 26.3497 27.2193C26.1511 27.4163 25.9433 27.6307 26.1756 28.0275C26.4077 28.4245 27.2069 29.7215 28.3903 30.7723C29.6622 31.9008 30.7675 32.378 31.3281 32.6201L31.3282 32.6201C31.438 32.6675 31.5269 32.7059 31.5921 32.7384C31.9901 32.9369 32.2224 32.9042 32.4547 32.6396C32.6869 32.3758 33.4501 31.4832 33.7152 31.0863C33.9804 30.6895 34.2454 30.7555 34.6106 30.8879Z" fill="black"/>
</svg>
