<svg width="98" height="98" viewBox="0 0 98 98" fill="none" xmlns="http://www.w3.org/2000/svg">
<path fill-rule="evenodd" clip-rule="evenodd" d="M49.4168 29C60.6929 29 69.8333 38.1406 69.8333 49.4167C69.8333 60.6928 60.6929 69.8334 49.4168 69.8334C45.8086 69.8393 42.264 68.8844 39.147 67.0668L29.0082 69.8334L31.7685 59.6904C29.9496 56.5725 28.994 53.0264 29 49.4167C29 38.1406 38.1407 29 49.4168 29ZM42.4586 39.8209L42.0501 39.8371C41.7858 39.8533 41.5276 39.9225 41.2906 40.0414C41.0692 40.1666 40.8671 40.3234 40.6904 40.5069C40.4832 40.7021 40.3519 40.8755 40.226 41.0417L40.2252 41.0428C40.217 41.0535 40.2088 41.0643 40.2007 41.075C40.1863 41.0939 40.1719 41.1128 40.1575 41.1316C39.4023 42.1135 38.9959 43.3189 39.002 44.5573C39.006 45.5578 39.2675 46.5317 39.6757 47.4422C40.5109 49.284 41.8847 51.2336 43.6977 53.0405C43.7584 53.1008 43.819 53.1614 43.8793 53.2218L43.8937 53.2361C44.264 53.6055 44.6326 53.9732 45.025 54.3187C47.2778 56.302 49.9621 57.7325 52.865 58.496L54.0245 58.6736C54.3365 58.6905 54.6486 58.6739 54.9616 58.6571C54.984 58.6559 55.0064 58.6548 55.0288 58.6536C55.0724 58.6513 55.116 58.649 55.1597 58.647C55.7545 58.6164 56.3348 58.4553 56.8603 58.1754C57.1277 58.0375 57.3886 57.8878 57.6425 57.7261C57.6425 57.7261 57.7301 57.6691 57.8976 57.5423C58.1732 57.3384 58.3426 57.1932 58.5714 56.9543C58.7407 56.7789 58.8877 56.5727 59.0001 56.3379C59.1594 56.005 59.3186 55.3701 59.3839 54.8412C59.4301 54.4596 59.42 54.2419 59.4136 54.1035L59.4126 54.0799C59.4044 53.8612 59.2228 53.6346 59.0246 53.5387L57.8364 53.0059C57.8364 53.0059 56.0601 52.232 54.9738 51.738C54.8602 51.6884 54.7386 51.6599 54.6146 51.6544C54.475 51.64 54.3338 51.6556 54.2006 51.7003C54.0677 51.745 53.9455 51.8179 53.8429 51.9135C53.8328 51.9095 53.6959 52.0259 52.2197 53.8144C52.1349 53.9283 52.0182 54.0143 51.8844 54.0615C51.7506 54.1087 51.6057 54.1151 51.4685 54.0799C51.3353 54.044 51.2051 53.999 51.0783 53.9451C50.9367 53.8855 50.8468 53.8466 50.7647 53.8109L50.7528 53.8058C50.6928 53.7797 50.6355 53.7549 50.5638 53.7246C49.3921 53.2132 48.3074 52.5223 47.3482 51.6767C47.1605 51.5126 46.9823 51.3377 46.8043 51.1628C46.7388 51.0985 46.6732 51.0342 46.6071 50.9702C45.8041 50.2012 45.104 49.3309 44.5246 48.3815L44.4042 48.1876C44.3176 48.0572 44.2477 47.9166 44.196 47.769C44.1185 47.4689 44.3206 47.2278 44.3206 47.2278C44.3206 47.2278 44.8168 46.6849 45.0474 46.3909C45.2719 46.1051 45.4617 45.8274 45.5842 45.6292C45.8252 45.2415 45.9009 44.8434 45.7741 44.535C45.2026 43.1385 44.6104 41.7481 44.0021 40.3678C43.8815 40.0943 43.5244 39.8984 43.1998 39.8595C43.0895 39.8472 42.9793 39.835 42.869 39.827C42.5946 39.8132 42.3199 39.816 42.0461 39.835L42.4586 39.8209Z" fill="black"/>
</svg>
