<svg width="128" height="128" viewBox="0 0 128 128" fill="none" xmlns="http://www.w3.org/2000/svg">
<path fill-rule="evenodd" clip-rule="evenodd" d="M12 0C5.37258 0 0 5.37258 0 12V116C0 122.627 5.37258 128 12 128H116C122.627 128 128 122.627 128 116V12C128 5.37258 122.627 0 116 0H12ZM35.2332 64.1679C35.2332 48.0976 48.203 35 64.1166 35C71.8402 35 79.0975 38.0316 84.5477 43.565C89.998 49.0689 93 56.3977 93 64.1974C93 80.2677 80.0302 93.3653 64.1166 93.3653C59.2784 93.3653 54.5276 92.1291 50.3015 89.8039L35 93.8657L39.0804 78.7372C36.5739 74.3223 35.2332 69.3187 35.2332 64.1679ZM81.1085 47.038C76.5618 42.4465 70.5578 39.9153 64.1457 39.9153C50.8844 39.9153 40.1296 50.8054 40.1005 64.1679C40.1005 68.7595 41.3829 73.2627 43.7729 77.0595L44.3558 78.0014L41.9367 86.949L51.0302 84.5355L51.9045 85.0358C55.5769 87.2727 59.803 88.4206 64.1166 88.4206C77.3487 88.4206 88.1327 77.5599 88.1327 64.1974C88.1327 57.7221 85.6261 51.6296 81.1085 47.038ZM51.9628 51.6001C52.6332 50.8643 53.4201 50.6877 53.8864 50.6877C54.1462 50.6877 54.3979 50.6958 54.6375 50.7035C54.8548 50.7105 55.0622 50.7171 55.2563 50.7171C55.3101 50.7205 55.3655 50.7212 55.4222 50.7219C55.8572 50.727 56.3728 50.733 56.8884 51.9827C57.1494 52.5977 57.564 53.6139 57.9674 54.6025C58.5101 55.9326 59.0323 57.2127 59.1327 57.3984C59.3075 57.7516 59.4241 58.1636 59.191 58.664C59.1505 58.7457 59.1135 58.8231 59.0781 58.8972C58.9094 59.25 58.7754 59.5302 58.4623 59.8707C58.1709 60.3122 57.7045 60.842 57.3839 61.1658C57.0342 61.4896 56.7136 61.931 57.0633 62.6374C57.5005 63.3733 58.9286 65.7573 61.0854 67.6999C63.3681 69.7598 65.3675 70.6347 66.4094 71.0905C66.618 71.1818 66.7882 71.2563 66.9146 71.3201C67.6141 71.6733 68.0221 71.6144 68.4593 71.1141C68.8673 70.6432 70.2663 68.9949 70.7327 68.2591C71.2864 67.5527 71.6945 67.6704 72.3648 67.9059C73.006 68.1414 76.5618 69.9073 77.2905 70.3194C77.3785 70.3585 77.4627 70.3955 77.5431 70.4308C78.1279 70.6876 78.5101 70.8553 78.6894 71.1141C78.8643 71.4379 78.8643 72.8801 78.2523 74.5872C77.6402 76.2943 74.7839 77.8542 73.3849 78.0602C72.1317 78.2368 70.5578 78.3251 68.8382 77.7659C67.7889 77.4422 66.4482 77.0007 64.7286 76.206C58.1414 73.3741 53.6432 67.0505 52.5636 65.5328C52.4538 65.3784 52.3794 65.2737 52.3417 65.2275C52.3139 65.1841 52.2688 65.1184 52.2098 65.0323C51.5899 64.1277 49.4271 60.9715 49.4271 57.6927C49.4271 54.4103 51.0365 52.628 51.7906 51.7928C51.8547 51.7219 51.9126 51.6577 51.9628 51.6001Z" fill="black"/>
</svg>
